<svg width="156" height="143" viewBox="0 0 156 143" fill="none" xmlns="http://www.w3.org/2000/svg">
<g id="Group" opacity="0.4">
<g id="Group_2">
<path id="Vector" d="M136.701 107.796C129.516 113.438 120.569 116.466 111.542 117.951C110.751 118.089 109.959 118.208 109.167 118.307C107.341 118.565 105.508 118.764 103.671 118.921C98.8609 119.334 95.1729 123.362 95.1729 128.189V140.88C95.1729 142.799 92.7933 143.742 91.525 142.302C86.9876 137.148 79.6841 132.656 72.0332 128.976C69.7966 127.887 67.5203 126.878 65.2636 125.948C52.6743 120.683 41.0153 117.713 41.0153 117.713C39.0758 117.258 37.1553 116.724 35.275 116.091C35.156 116.051 35.0572 116.031 34.9578 115.992C34.4233 115.814 33.909 115.635 33.3941 115.457C33.236 115.397 33.1763 115.378 33.1763 115.378V115.358C25.2389 112.448 17.9348 107.935 12.5312 101.503C4.93005 92.4365 1.72339 80.461 0.516001 68.7032C-1.02813 53.5014 0.634952 37.052 9.04756 23.9484C17.5786 10.6269 31.831 3.42172 47.1913 1.14545C60.295 -0.81418 73.6164 0.274256 86.8787 0.55181C103.05 0.908106 120.43 0.353558 133.949 9.26096C141.67 14.3479 147.35 22.1865 150.794 30.7772C154.258 39.368 155.585 48.6713 155.782 57.935C156.198 76.3825 151.25 96.3949 136.701 107.796Z" fill="url(#paint0_linear_1_176)"/>
<path id="Vector_2" opacity="0.51" d="M42.9181 91.6864C47.1937 95.0432 52.5175 96.8448 57.8882 97.7283C58.3595 97.811 58.8303 97.8813 59.3016 97.9405C59.329 97.9444 59.3569 97.9483 59.3843 97.9522C64.0692 98.6051 67.6288 102.474 67.6288 107.205V109.289C67.6288 111.112 69.8012 112.092 71.1359 110.851C73.8221 108.352 77.5353 106.147 81.3975 104.289C82.7284 103.641 84.0832 103.04 85.4257 102.487C92.9163 99.354 99.8535 97.5876 99.8535 97.5876C101.008 97.3167 102.15 96.9984 103.269 96.622C103.34 96.5986 103.399 96.5868 103.458 96.5634C103.776 96.4573 104.082 96.3512 104.388 96.2456C104.483 96.2104 104.518 96.1987 104.518 96.1987V96.187C109.241 94.4557 113.586 91.7701 116.802 87.9425C121.325 82.5483 123.233 75.4224 123.951 68.426C124.87 59.3807 123.881 49.5932 118.875 41.796C113.799 33.8692 105.319 29.582 96.1788 28.2277C88.3816 27.0616 80.4554 27.7095 72.5639 27.8742C62.9411 28.0864 52.6001 27.7564 44.5555 33.0567C39.9622 36.0835 36.5819 40.7478 34.5324 45.8593C32.4711 50.9709 31.682 56.5069 31.5641 62.0189C31.3168 72.9948 34.2615 84.9022 42.9181 91.6864Z" fill="url(#paint1_linear_1_176)"/>
<path id="Vector_3" opacity="0.51" d="M85.1762 119.728L72.0329 128.977C69.7963 127.888 67.52 126.879 65.2633 125.948C52.674 120.683 41.0151 117.714 41.0151 117.714C41.0151 117.714 53.486 120.975 85.1762 119.728Z" fill="url(#paint2_linear_1_176)"/>
</g>
<g id="Group_3">
<path id="Vector_4" d="M42.9181 86.5167C47.1937 89.8736 52.5175 91.6757 57.8882 92.5586C58.3595 92.6413 58.8303 92.7117 59.3016 92.7709C59.329 92.7748 59.3569 92.7787 59.3843 92.7826C64.0692 93.4354 67.6288 97.3044 67.6288 102.035V104.119C67.6288 105.942 69.8012 106.923 71.1359 105.681C73.8221 103.182 77.5353 100.977 81.3975 99.1194C82.7284 98.4716 84.0832 97.8707 85.4257 97.3173C92.9163 94.1843 99.8535 92.4179 99.8535 92.4179C101.008 92.147 102.15 91.8287 103.269 91.4523C103.34 91.4289 103.399 91.4171 103.458 91.3937C103.776 91.2876 104.082 91.1815 104.388 91.0759C104.483 91.0407 104.518 91.029 104.518 91.029V91.0173C109.241 89.2861 113.586 86.6004 116.802 82.7728C121.325 77.3786 123.233 70.2527 123.951 63.2564C124.87 54.211 123.881 44.4235 118.875 36.6263C113.799 28.6996 105.319 24.4123 96.1788 23.058C88.3816 21.892 80.4554 22.5398 72.5639 22.7045C62.9411 22.9167 52.6001 22.5867 44.5555 27.887C39.9622 30.9139 36.5819 35.5781 34.5324 40.6896C32.4711 45.8012 31.682 51.3372 31.5641 56.8492C31.3168 67.8251 34.2615 79.7325 42.9181 86.5167Z" fill="white"/>
<path id="Vector_5" opacity="0.51" d="M73.5772 93.6162L81.3978 99.1192C82.7286 98.4714 84.0835 97.8705 85.426 97.3171C92.9166 94.1841 99.8538 92.4177 99.8538 92.4177C99.8538 92.4177 92.4335 94.3584 73.5772 93.6162Z" fill="url(#paint3_linear_1_176)"/>
</g>
<path id="Vector_6" opacity="0.51" d="M53.3798 68.5112C58.3261 68.5112 62.3358 64.5015 62.3358 59.5552C62.3358 54.609 58.3261 50.5992 53.3798 50.5992C48.4336 50.5992 44.4238 54.609 44.4238 59.5552C44.4238 64.5015 48.4336 68.5112 53.3798 68.5112Z" fill="url(#paint4_linear_1_176)"/>
<path id="Vector_7" opacity="0.51" d="M77.9034 68.5112C82.8497 68.5112 86.8594 64.5015 86.8594 59.5552C86.8594 54.609 82.8497 50.5992 77.9034 50.5992C72.9572 50.5992 68.9474 54.609 68.9474 59.5552C68.9474 64.5015 72.9572 68.5112 77.9034 68.5112Z" fill="url(#paint5_linear_1_176)"/>
<path id="Vector_8" opacity="0.51" d="M102.427 68.5112C107.373 68.5112 111.383 64.5015 111.383 59.5552C111.383 54.609 107.373 50.5992 102.427 50.5992C97.4808 50.5992 93.471 54.609 93.471 59.5552C93.471 64.5015 97.4808 68.5112 102.427 68.5112Z" fill="url(#paint6_linear_1_176)"/>
</g>
<defs>
<linearGradient id="paint0_linear_1_176" x1="27.5801" y1="205.023" x2="87.115" y2="33.3406" gradientUnits="userSpaceOnUse">
<stop stop-color="#19004D"/>
<stop offset="1" stop-color="#A58CF4"/>
</linearGradient>
<linearGradient id="paint1_linear_1_176" x1="77.4937" y1="42.6708" x2="79.0979" y2="121.815" gradientUnits="userSpaceOnUse">
<stop offset="0.6056" stop-color="#19004D" stop-opacity="0.9118"/>
<stop offset="0.6491" stop-color="#4C338A" stop-opacity="0.6288"/>
<stop offset="0.6941" stop-color="#7C63C3" stop-opacity="0.3351"/>
<stop offset="0.7276" stop-color="#9A81E7" stop-opacity="0.1167"/>
<stop offset="0.7456" stop-color="#A58CF4" stop-opacity="0"/>
</linearGradient>
<linearGradient id="paint2_linear_1_176" x1="59.5179" y1="108.881" x2="68.4511" y2="133.448" gradientUnits="userSpaceOnUse">
<stop offset="0.5125" stop-color="#19004D" stop-opacity="0.9118"/>
<stop offset="0.5426" stop-color="#1E0553" stop-opacity="0.8007"/>
<stop offset="0.583" stop-color="#2C1364" stop-opacity="0.6518"/>
<stop offset="0.6293" stop-color="#442B80" stop-opacity="0.4814"/>
<stop offset="0.6798" stop-color="#654CA7" stop-opacity="0.295"/>
<stop offset="0.7333" stop-color="#8E75D9" stop-opacity="0.0978"/>
<stop offset="0.7599" stop-color="#A58CF4" stop-opacity="0"/>
</linearGradient>
<linearGradient id="paint3_linear_1_176" x1="88.8444" y1="87.1622" x2="83.5289" y2="101.78" gradientUnits="userSpaceOnUse">
<stop offset="0.5125" stop-color="#19004D" stop-opacity="0.9118"/>
<stop offset="0.5426" stop-color="#1E0553" stop-opacity="0.8007"/>
<stop offset="0.583" stop-color="#2C1364" stop-opacity="0.6518"/>
<stop offset="0.6293" stop-color="#442B80" stop-opacity="0.4814"/>
<stop offset="0.6798" stop-color="#654CA7" stop-opacity="0.295"/>
<stop offset="0.7333" stop-color="#8E75D9" stop-opacity="0.0978"/>
<stop offset="0.7599" stop-color="#A58CF4" stop-opacity="0"/>
</linearGradient>
<linearGradient id="paint4_linear_1_176" x1="45.5966" y1="77.517" x2="64.773" y2="33.2639" gradientUnits="userSpaceOnUse">
<stop offset="0.2667" stop-color="#19004D" stop-opacity="0.9118"/>
<stop offset="0.3139" stop-color="#301769" stop-opacity="0.7934"/>
<stop offset="0.4227" stop-color="#6249A4" stop-opacity="0.5205"/>
<stop offset="0.5155" stop-color="#866DD0" stop-opacity="0.2878"/>
<stop offset="0.5876" stop-color="#9D84EA" stop-opacity="0.1069"/>
<stop offset="0.6302" stop-color="#A58CF4" stop-opacity="0"/>
</linearGradient>
<linearGradient id="paint5_linear_1_176" x1="70.12" y1="77.517" x2="89.2964" y2="33.2639" gradientUnits="userSpaceOnUse">
<stop offset="0.2667" stop-color="#19004D" stop-opacity="0.9118"/>
<stop offset="0.3139" stop-color="#301769" stop-opacity="0.7934"/>
<stop offset="0.4227" stop-color="#6249A4" stop-opacity="0.5205"/>
<stop offset="0.5155" stop-color="#866DD0" stop-opacity="0.2878"/>
<stop offset="0.5876" stop-color="#9D84EA" stop-opacity="0.1069"/>
<stop offset="0.6302" stop-color="#A58CF4" stop-opacity="0"/>
</linearGradient>
<linearGradient id="paint6_linear_1_176" x1="94.644" y1="77.517" x2="113.82" y2="33.2639" gradientUnits="userSpaceOnUse">
<stop offset="0.2667" stop-color="#19004D" stop-opacity="0.9118"/>
<stop offset="0.3139" stop-color="#301769" stop-opacity="0.7934"/>
<stop offset="0.4227" stop-color="#6249A4" stop-opacity="0.5205"/>
<stop offset="0.5155" stop-color="#866DD0" stop-opacity="0.2878"/>
<stop offset="0.5876" stop-color="#9D84EA" stop-opacity="0.1069"/>
<stop offset="0.6302" stop-color="#A58CF4" stop-opacity="0"/>
</linearGradient>
</defs>
</svg>
