<svg width="124" height="18" viewBox="0 0 124 18" fill="none" xmlns="http://www.w3.org/2000/svg">
<g id="Group 2610745">
<g id="star">
<path id="Vector" d="M18.2131 7.2986L14.1792 11.2308L15.1318 16.7846C15.1733 17.0275 15.0735 17.2729 14.8741 17.418C14.7614 17.5002 14.6273 17.5417 14.4933 17.5417C14.3903 17.5417 14.2867 17.517 14.1921 17.4672L9.20435 14.8451L4.21719 17.4665C3.9996 17.5818 3.73473 17.563 3.53527 17.4173C3.33581 17.2723 3.23608 17.0268 3.27753 16.784L4.23014 11.2302L0.195605 7.2986C0.0194587 7.12633 -0.0446535 6.86859 0.0317631 6.63481C0.10818 6.40102 0.310878 6.22941 0.555023 6.19379L6.1302 5.38429L8.62345 0.331732C8.84169 -0.110577 9.567 -0.110577 9.78524 0.331732L12.2785 5.38429L17.8537 6.19379C18.0978 6.22941 18.3005 6.40038 18.3769 6.63481C18.4533 6.86924 18.3892 7.12569 18.2131 7.2986Z" fill="#AFAFAF"/>
</g>
<g id="star_2">
<path id="Vector_2" d="M45.2131 7.2986L41.1792 11.2308L42.1318 16.7846C42.1733 17.0275 42.0735 17.2729 41.8741 17.418C41.7614 17.5002 41.6273 17.5417 41.4933 17.5417C41.3903 17.5417 41.2867 17.517 41.1921 17.4672L36.2043 14.8451L31.2172 17.4665C30.9996 17.5818 30.7347 17.563 30.5353 17.4173C30.3358 17.2723 30.2361 17.0268 30.2775 16.784L31.2301 11.2302L27.1956 7.2986C27.0195 7.12633 26.9553 6.86859 27.0318 6.63481C27.1082 6.40102 27.3109 6.22941 27.555 6.19379L33.1302 5.38429L35.6235 0.331732C35.8417 -0.110577 36.567 -0.110577 36.7852 0.331732L39.2785 5.38429L44.8537 6.19379C45.0978 6.22941 45.3005 6.40038 45.3769 6.63481C45.4533 6.86924 45.3892 7.12569 45.2131 7.2986Z" fill="#AFAFAF"/>
</g>
<g id="star_3">
<path id="Vector_3" d="M71.2131 7.2986L67.1792 11.2308L68.1318 16.7846C68.1733 17.0275 68.0735 17.2729 67.8741 17.418C67.7614 17.5002 67.6273 17.5417 67.4933 17.5417C67.3903 17.5417 67.2867 17.517 67.1921 17.4672L62.2043 14.8451L57.2172 17.4665C56.9996 17.5818 56.7347 17.563 56.5353 17.4173C56.3358 17.2723 56.2361 17.0268 56.2775 16.784L57.2301 11.2302L53.1956 7.2986C53.0195 7.12633 52.9553 6.86859 53.0318 6.63481C53.1082 6.40102 53.3109 6.22941 53.555 6.19379L59.1302 5.38429L61.6235 0.331732C61.8417 -0.110577 62.567 -0.110577 62.7852 0.331732L65.2785 5.38429L70.8537 6.19379C71.0978 6.22941 71.3005 6.40038 71.3769 6.63481C71.4533 6.86924 71.3892 7.12569 71.2131 7.2986Z" fill="#AFAFAF"/>
</g>
<g id="star_4">
<path id="Vector_4" d="M96.2131 7.2986L92.1792 11.2308L93.1318 16.7846C93.1733 17.0275 93.0735 17.2729 92.8741 17.418C92.7614 17.5002 92.6273 17.5417 92.4933 17.5417C92.3903 17.5417 92.2867 17.517 92.1921 17.4672L87.2043 14.8451L82.2172 17.4665C81.9996 17.5818 81.7347 17.563 81.5353 17.4173C81.3358 17.2723 81.2361 17.0268 81.2775 16.784L82.2301 11.2302L78.1956 7.2986C78.0195 7.12633 77.9553 6.86859 78.0318 6.63481C78.1082 6.40102 78.3109 6.22941 78.555 6.19379L84.1302 5.38429L86.6235 0.331732C86.8417 -0.110577 87.567 -0.110577 87.7852 0.331732L90.2785 5.38429L95.8537 6.19379C96.0978 6.22941 96.3005 6.40038 96.3769 6.63481C96.4533 6.86924 96.3892 7.12569 96.2131 7.2986Z" fill="#AFAFAF"/>
</g>
<g id="star_5">
<path id="Vector_5" d="M123.213 7.2986L119.179 11.2308L120.132 16.7846C120.173 17.0275 120.074 17.2729 119.874 17.418C119.761 17.5002 119.627 17.5417 119.493 17.5417C119.39 17.5417 119.287 17.517 119.192 17.4672L114.204 14.8451L109.217 17.4665C109 17.5818 108.735 17.563 108.535 17.4173C108.336 17.2723 108.236 17.0268 108.278 16.784L109.23 11.2302L105.196 7.2986C105.019 7.12633 104.955 6.86859 105.032 6.63481C105.108 6.40102 105.311 6.22941 105.555 6.19379L111.13 5.38429L113.623 0.331732C113.842 -0.110577 114.567 -0.110577 114.785 0.331732L117.278 5.38429L122.854 6.19379C123.098 6.22941 123.301 6.40038 123.377 6.63481C123.453 6.86924 123.389 7.12569 123.213 7.2986Z" fill="#AFAFAF"/>
</g>
</g>
</svg>
