<svg width="973" height="43" viewBox="0 0 973 43" fill="none" xmlns="http://www.w3.org/2000/svg">
<path d="M398 8.83534H543V33H398V8.83534Z" fill="#004C8F"/>
<path d="M422.168 8.83534H543V33H422.168V8.83534Z" fill="#004C8F"/>
<path d="M429.852 26.6344V15.2008H433.613V19.0596H437.138V15.2008H440.906V26.6344H437.138V22.1983H433.613V26.6344H429.852Z" fill="white"/>
<path d="M446.858 18.0417H447.833C448.535 18.0417 449.049 18.1146 449.377 18.2604C449.62 18.3668 449.817 18.5248 449.991 18.7618C450.149 18.9958 450.276 19.2906 450.37 19.6613C450.455 20.0289 450.501 20.4177 450.501 20.8279C450.501 21.4964 450.41 22.0555 450.212 22.5082C450.021 22.9609 449.745 23.286 449.389 23.4866C449.034 23.6901 448.505 23.7874 447.806 23.7874L446.858 23.7935V18.0417ZM448.31 26.6344C449.198 26.6344 449.933 26.5615 450.535 26.4005C451.139 26.2455 451.631 26.0388 452.008 25.7927C452.391 25.5405 452.737 25.2003 453.056 24.7779C453.372 24.3404 453.649 23.7905 453.865 23.1159C454.086 22.4444 454.193 21.6878 454.193 20.831C454.193 19.5731 453.953 18.5096 453.467 17.6224C452.974 16.7534 452.306 16.1245 451.452 15.7538C450.601 15.3831 449.587 15.2008 448.408 15.2008H443.178V26.6344H448.31Z" fill="white"/>
<path d="M455.916 26.6344V15.2008H464.836V18.0205H459.628V19.8526H463.794V22.5963H459.628V26.6344H455.916Z" fill="white"/>
<path d="M477.434 19.5732H473.882C473.815 19.005 473.608 18.5553 473.265 18.2333C472.919 17.9173 472.484 17.7623 471.949 17.7623C471.284 17.7623 470.743 18.0206 470.327 18.531C469.907 19.0475 469.698 19.8831 469.698 21.0316C469.698 21.8338 469.792 22.4353 469.965 22.8455C470.144 23.2679 470.397 23.5717 470.71 23.7753C471.032 23.9789 471.424 24.0731 471.907 24.0731C472.484 24.0731 472.946 23.9272 473.283 23.593C473.63 23.28 473.83 22.8122 473.897 22.1863H477.513C477.434 22.8972 477.291 23.4928 477.084 23.9789C476.887 24.462 476.534 24.942 476.057 25.4252C475.574 25.9143 474.997 26.2911 474.331 26.5524C473.666 26.8168 472.897 26.9414 472.016 26.9414C471.147 26.9414 470.336 26.8168 469.604 26.5616C468.862 26.3003 468.236 25.9295 467.738 25.4647C467.231 24.9815 466.836 24.4407 466.553 23.83C466.146 22.9701 465.954 22.0252 465.954 20.9709C465.954 20.0898 466.097 19.2541 466.386 18.4884C466.675 17.7288 467.073 17.0816 467.58 16.559C468.09 16.0394 468.646 15.6506 469.266 15.3893C470.05 15.0551 470.913 14.894 471.87 14.894C472.703 14.894 473.475 15.0155 474.204 15.2616C474.93 15.5077 475.526 15.8663 475.99 16.3433C476.461 16.8204 476.823 17.3673 477.075 17.9901C477.257 18.4246 477.373 18.9503 477.434 19.5732Z" fill="white"/>
<path d="M489.481 17.7744C490.013 17.7744 490.356 17.7986 490.526 17.8473C490.745 17.9111 490.927 18.0356 491.058 18.1997C491.192 18.3699 491.262 18.5674 491.262 18.7953C491.262 19.087 491.146 19.327 490.924 19.5093C490.687 19.7007 490.283 19.7888 489.703 19.7888H488.287V17.7744H489.481ZM490.426 26.6344C491.316 26.6344 491.942 26.5918 492.31 26.5128C492.671 26.4278 493.045 26.2941 493.425 26.1179C493.796 25.9235 494.081 25.7411 494.27 25.5406C494.561 25.2702 494.777 24.942 494.935 24.547C495.093 24.1489 495.172 23.6993 495.172 23.2162C495.172 22.5264 495.002 21.9582 494.656 21.4964C494.309 21.0315 493.844 20.7246 493.258 20.5575C494.251 19.9316 494.747 19.1234 494.747 18.139C494.747 17.1211 494.309 16.3432 493.443 15.8145C492.775 15.4074 491.733 15.2008 490.32 15.2008H484.647V26.6344H490.426ZM489.821 21.8459C490.566 21.8459 491.049 21.937 491.292 22.1284C491.517 22.3137 491.638 22.569 491.638 22.9123C491.638 23.2587 491.517 23.5321 491.271 23.7236C491.037 23.9271 490.548 24.0122 489.821 24.0122H488.287V21.8459H489.821Z" fill="white"/>
<path d="M503.434 22.7908H501.043L502.221 18.6312L503.434 22.7908ZM499.918 26.6344L500.353 25.1335H504.096L504.534 26.6344H508.274L504.172 15.2008H500.353L496.248 26.6344H499.918Z" fill="white"/>
<path d="M509.854 26.6344V15.2008H513.357L517.31 21.3233V15.2008H520.914V26.6344H517.334L513.466 20.6639V26.6344H509.854Z" fill="white"/>
<path d="M523.42 26.6344V15.2008H527.064V18.9715L530.464 15.2008H534.881L530.691 19.5062L535.316 26.6344H530.813L528.063 22.0798L527.064 23.0672V26.6344H523.42Z" fill="white"/>
<path d="M398 8.83534H422.165V33H398V8.83534Z" fill="#ED232A"/>
<path d="M402.229 13.0648H417.938V28.7736H402.229V13.0648Z" fill="white"/>
<path d="M408.875 8.83534H411.29V33H408.875V8.83534Z" fill="white"/>
<path d="M398 19.7129H422.165V22.1284H398V19.7129Z" fill="white"/>
<path d="M406.459 17.2943H413.709V24.5441H406.459V17.2943Z" fill="#004C8F"/>
<path d="M623.624 6C625.431 9.10427 627.254 12.1994 629.041 15.3154C626.152 20.4118 623.305 25.533 620.318 30.5734C619.172 32.5082 618.057 34.4613 616.924 36.4026C613.25 36.4247 609.576 36.4234 605.902 36.4182C606.014 36.1666 606.125 35.9136 606.26 35.6738C612.045 25.7808 617.852 15.9008 623.624 6Z" fill="#AE285D"/>
<path d="M703.57 13.631C705.601 17.4171 707.631 21.202 709.66 24.9894C708.944 25.0037 708.228 24.9672 707.514 24.992C707.034 24.1576 706.618 23.288 706.149 22.4484C704.344 22.3949 702.538 22.4314 700.733 22.4275C700.297 23.2919 699.823 24.1341 699.361 24.9829C698.656 24.9764 697.95 24.9972 697.246 24.9907C699.325 21.1876 701.409 17.3871 703.57 13.631ZM701.636 20.8082C702.867 20.8252 704.099 20.8226 705.331 20.833C704.714 19.6857 704.159 18.5058 703.498 17.3832C702.864 18.5188 702.244 19.6596 701.636 20.8082Z" fill="#AE285D"/>
<path d="M710.843 13.5867C713.91 16.2516 716.976 18.9178 720.005 21.627C720.088 19.1824 719.995 16.7379 720.069 14.2933C720.725 14.3063 721.38 14.3168 722.036 14.3285C722.015 18.0938 722.026 21.8604 722.022 25.6257C720.008 23.9503 718.073 22.1811 716.083 20.4745C714.976 19.5279 713.88 18.571 712.822 17.571C712.796 20.0468 712.834 22.524 712.781 24.9999C712.129 25.0025 711.477 24.9855 710.826 24.9907C710.832 21.1889 710.799 17.3885 710.843 13.5867Z" fill="#AE285D"/>
<path d="M646.032 24.9751C648.15 21.1928 650.214 17.3806 652.381 13.6271C654.399 17.4171 656.429 21.202 658.471 24.979C657.745 24.9959 657.02 24.9946 656.294 24.9803C655.853 24.1341 655.402 23.2932 654.981 22.4366C653.17 22.4132 651.36 22.4327 649.549 22.4327C649.077 23.2867 648.651 24.168 648.141 25.0011C647.437 24.9816 646.734 24.9959 646.032 24.9751ZM650.429 20.8187C651.667 20.8134 652.905 20.8304 654.144 20.8265C653.521 19.6857 652.973 18.5045 652.304 17.3884C651.674 18.5305 651.053 19.6739 650.429 20.8187Z" fill="#AE285D"/>
<path d="M676.181 14.6074C677.217 14.0976 678.429 14.0311 679.549 14.2567C680.519 14.4614 681.299 15.1511 681.891 15.9151C681.365 16.1811 680.844 16.4509 680.327 16.7339C679.631 15.6452 677.974 15.2984 676.964 16.1472C676.428 16.5305 676.471 17.4744 677.076 17.7664C678.432 18.5135 680.081 18.6739 681.283 19.7078C682.509 20.7469 682.462 22.8238 681.326 23.9137C680.107 25.1497 678.176 25.4183 676.556 24.9554C675.198 24.6125 674.178 23.3648 673.996 21.9933C674.652 21.8498 675.314 21.7312 675.978 21.6282C676.058 22.271 676.301 22.9789 676.908 23.3022C677.867 23.8172 679.258 23.6882 679.921 22.7586C680.387 22.1262 680.249 21.1549 679.612 20.6921C678.279 19.799 676.51 19.7443 675.314 18.6191C674.683 18.082 674.421 17.185 674.636 16.3884C674.807 15.5761 675.471 14.9751 676.181 14.6074Z" fill="#AE285D"/>
<path d="M659.105 14.3675C659.849 14.2698 660.601 14.3036 661.35 14.3115C662.15 15.5031 662.95 16.6948 663.751 17.8851C664.595 16.7091 665.415 15.5162 666.247 14.3323C667.015 14.3076 667.783 14.2945 668.551 14.318C667.333 16.0116 666.107 17.7013 664.887 19.3936C666.129 21.2775 667.485 23.0871 668.699 24.9906C667.968 24.9945 667.236 24.988 666.505 24.9815C665.574 23.6425 664.65 22.2984 663.719 20.9594C662.757 22.3036 661.787 23.6412 660.836 24.9932C660.096 25.0076 659.354 24.9972 658.613 24.9985C659.901 23.1106 661.257 21.271 662.596 19.4183C661.445 17.726 660.272 16.0494 659.105 14.3675Z" fill="#AE285D"/>
<path d="M670.355 14.3206C671.015 14.301 671.673 14.3023 672.333 14.3167C672.337 17.8747 672.334 21.4326 672.334 24.9906C671.664 24.9919 670.995 24.9906 670.325 24.9906C670.35 21.434 670.338 17.8773 670.355 14.3206Z" fill="#AE285D"/>
<path d="M689.604 14.3115C691.296 14.3845 693.121 14.0781 694.681 14.9073C696.201 15.7209 696.552 18.1342 695.15 19.2267C696.033 19.5748 696.887 20.2306 697.119 21.1967C697.49 22.3818 696.834 23.6934 695.798 24.3075C693.909 25.3453 691.683 24.8616 689.632 25.0024C689.569 21.4392 689.609 17.876 689.604 14.3115ZM691.567 15.8474C691.571 16.8643 691.569 17.8799 691.562 18.8956C692.297 18.8656 693.112 18.9099 693.739 18.4562C694.379 17.8865 694.356 16.7065 693.649 16.1994C693.031 15.8082 692.269 15.8526 691.567 15.8474ZM691.579 20.2919C691.571 21.3284 691.575 22.3662 691.595 23.4027C692.582 23.3505 693.644 23.5331 694.554 23.0442C695.361 22.6478 695.51 21.3519 694.76 20.8225C693.857 20.1211 692.644 20.3141 691.579 20.2919Z" fill="#AE285D"/>
<path d="M724.315 14.3115C724.972 14.3063 725.63 14.3089 726.288 14.3102C726.291 15.7157 726.275 17.1224 726.305 18.5292C727.924 17.1042 729.575 15.7157 731.203 14.3024C732.103 14.3076 733.002 14.3115 733.902 14.3089C731.959 15.9021 730.032 17.5122 728.124 19.1446C730.001 21.1263 731.946 23.0415 733.867 24.9815C732.975 24.9724 732.082 25.0428 731.194 24.9398C729.666 23.3805 728.148 21.8121 726.635 20.2397C726.524 20.3857 726.414 20.5318 726.306 20.6778C726.267 22.1158 726.302 23.5526 726.278 24.9907C725.617 24.9867 724.956 25.0037 724.296 24.9998C724.301 21.4379 724.31 17.8747 724.315 14.3115Z" fill="#AE285D"/>
<path d="M623.625 24.9254C627.312 24.9241 630.999 24.8981 634.687 24.9593C636.882 28.7872 639.148 32.5733 641.324 36.4116C637.637 36.4299 633.951 36.4155 630.264 36.4129C628.07 32.572 625.778 28.7898 623.625 24.9254Z" fill="#AE285D"/>
<path fill-rule="evenodd" clip-rule="evenodd" d="M820.974 24.6101L819.939 29.5718H815.416C815.76 27.9294 816.104 26.1682 816.495 24.4879C816.575 24.1232 816.664 23.7501 816.748 23.3433C816.748 23.0553 816.789 22.7689 816.836 22.4817C817.007 20.4746 815.5 20.104 814.04 20.7197C813.171 21.0473 812.784 21.6192 812.36 22.3596C811.967 23.0157 811.844 23.628 811.666 24.4475L810.545 29.5718H806.063L808.69 17.3591C810.07 17.3178 811.446 17.2765 812.829 17.2386C812.659 18.0152 812.443 18.7539 812.313 19.5321C813.997 17.6059 816.143 16.6238 818.648 17.3178C821.147 17.9739 821.667 20.3541 821.273 22.6442C821.224 23.3433 821.147 23.9556 820.974 24.6101Z" fill="#98272A"/>
<path fill-rule="evenodd" clip-rule="evenodd" d="M902.716 11.8313H907.113L903.192 29.6104H899.145C899.314 28.9543 899.484 28.3016 899.704 27.6404C898.881 28.3816 898.196 28.9939 897.289 29.4066V26.7417C897.634 26.6626 897.983 26.5362 898.281 26.3753C899.579 25.5954 900.087 24.2023 900.087 22.8084L900.004 22.1127C899.92 21.46 899.62 20.8822 898.84 20.5579C898.415 20.3094 897.807 20.3094 897.289 20.3937V17.2369C897.545 17.2369 897.762 17.3177 897.983 17.3177C899.231 17.605 900.303 18.3866 900.915 19.5725L902.716 11.8313ZM897.289 29.4066C896.99 29.5709 896.649 29.6517 896.253 29.7309C895.054 30.0173 894.356 30.1006 893.109 29.6517C891.647 29.1582 890.917 28.2174 890.356 26.9472C889.063 23.8351 890.48 19.4099 893.669 17.893C894.702 17.3994 896.037 17.1164 897.289 17.2369V20.3937C896.947 20.4349 896.563 20.5579 896.3 20.7196C895.566 21.1719 895.09 21.8263 894.834 22.6029C894.537 23.3795 894.356 24.4879 894.619 25.3057C894.702 25.7167 894.879 26.0081 895.133 26.2499C895.735 26.7417 896.563 26.8639 897.289 26.7417" fill="#98272A"/>
<path fill-rule="evenodd" clip-rule="evenodd" d="M866.176 17.5267L865.272 20.1469C864.024 19.8218 863.115 19.6534 861.825 19.5734C861.434 19.5734 861.14 19.5321 860.839 19.6113C859.929 19.8218 859.54 20.5967 860.232 21.172C861.09 21.9898 862.601 22.1919 863.677 22.8497C863.94 23.0165 864.239 23.2616 864.538 23.5067C865.393 24.776 865.272 26.1286 864.369 27.4425C862.944 29.4463 860.232 29.6518 857.775 29.4875C856.439 29.4025 855.317 29.1591 853.979 28.914L854.803 25.9627C856.439 26.3754 857.475 26.7452 859.017 26.5759C859.712 26.5363 860.709 26.5759 860.709 25.678C860.533 25.0211 859.889 24.61 859.195 24.3254C858.165 23.8747 857.044 23.5884 856.226 22.8085C855.745 22.154 855.613 21.6621 855.613 20.8435C855.613 20.024 855.878 19.4529 856.265 18.9181C858.467 15.9306 862.993 16.7897 866.176 17.5267Z" fill="#98272A"/>
<path fill-rule="evenodd" clip-rule="evenodd" d="M840.624 17.2369L845.19 17.156C844.847 18.6729 844.498 20.1882 844.154 21.7834C843.945 22.8084 843.512 24.1232 843.815 25.1448C843.99 25.7167 844.195 25.9231 844.762 26.0856C845.408 26.2928 846.232 26.1682 846.748 25.7993C848.295 24.7363 848.726 22.9718 849.113 21.2511L850.061 17.156H854.502L851.74 29.5717C850.449 29.6105 849.155 29.5304 847.819 29.5717C847.948 28.8718 848.124 27.8476 848.295 27.1511C847.819 27.5629 847.435 28.0152 846.916 28.3816C846.272 28.8718 845.493 29.2011 844.677 29.4066C843.727 29.6105 842.434 29.6105 841.529 29.2407C840.536 28.8718 839.805 28.0152 839.417 27.0694C838.901 25.7993 839.114 24.9418 839.331 23.6279C839.674 21.4996 840.152 19.3274 840.624 17.2369Z" fill="#98272A"/>
<path fill-rule="evenodd" clip-rule="evenodd" d="M835.537 11.8313H839.934L835.972 29.6104H831.919C832.092 28.9543 832.307 28.3016 832.476 27.6404C831.707 28.3816 830.975 28.9939 830.111 29.4066V26.7417C830.457 26.6626 830.798 26.5362 831.104 26.3753C832.348 25.5954 832.871 24.2023 832.871 22.8084L832.821 22.1127C832.738 21.46 832.393 20.8822 831.625 20.5579C831.184 20.3094 830.583 20.3094 830.111 20.3937V17.2369C830.327 17.2369 830.536 17.3177 830.798 17.3177C832.006 17.605 833.082 18.3866 833.729 19.5725L835.537 11.8313ZM830.111 29.4066C829.768 29.5709 829.421 29.6517 829.071 29.7309C827.872 30.0173 827.143 30.1006 825.892 29.6517C824.463 29.1582 823.688 28.2174 823.125 26.9472C821.872 23.8351 823.308 19.4099 826.449 17.893C827.482 17.3994 828.86 17.1164 830.111 17.2369V20.3937C829.724 20.4349 829.381 20.5579 829.071 20.7196C828.388 21.1719 827.872 21.8263 827.609 22.6029C827.311 23.3795 827.143 24.4879 827.393 25.3057C827.482 25.7167 827.654 26.0081 827.95 26.2499C828.56 26.7417 829.33 26.8639 830.111 26.7417" fill="#98272A"/>
<path fill-rule="evenodd" clip-rule="evenodd" d="M802.746 11.8314H807.355L803.523 29.5709H798.87" fill="#98272A"/>
<path fill-rule="evenodd" clip-rule="evenodd" d="M888.243 24.6101L887.162 29.5718H882.595C882.982 27.9294 883.369 26.1682 883.717 24.4879C883.803 24.1232 883.893 23.7501 884.021 23.3863C884.021 23.0553 884.021 22.7689 884.059 22.4817C884.28 20.4746 882.675 20.104 881.258 20.7197C880.439 21.0877 880.052 21.6192 879.623 22.3596C879.195 23.0157 879.062 23.6709 878.934 24.4475L877.766 29.5718H873.372L875.916 17.3591C877.29 17.3178 878.679 17.3178 880.052 17.2386C879.882 18.0152 879.705 18.7539 879.531 19.5321C881.212 17.6059 883.369 16.6238 885.867 17.3178C888.37 17.9739 888.889 20.3541 888.545 22.6872C888.456 23.3433 888.37 23.9556 888.243 24.6101Z" fill="#98272A"/>
<path fill-rule="evenodd" clip-rule="evenodd" d="M869.709 11.8314H874.364L870.531 29.5709H865.871" fill="#98272A"/>
<path fill-rule="evenodd" clip-rule="evenodd" d="M955.978 24.7364L954.904 29.731H950.336C950.68 28.0532 951.113 26.2499 951.462 24.6101C951.538 24.2016 951.628 23.8352 951.718 23.4233C951.718 23.1361 951.754 22.8497 951.801 22.5583C951.977 20.5512 950.423 20.1882 948.955 20.798C948.136 21.1307 947.752 21.7026 947.284 22.4412C946.89 23.0965 946.763 23.713 946.591 24.5292L945.463 29.6931H940.983L943.573 17.3995C944.944 17.3582 946.371 17.317 947.752 17.2765C947.578 18.0539 947.402 18.8356 947.233 19.5725C948.873 17.6463 951.113 16.6625 953.571 17.317C956.153 18.0152 956.627 20.435 956.283 22.7293C956.236 23.4233 956.108 24.0373 955.978 24.7364Z" fill="#98272A"/>
<path fill-rule="evenodd" clip-rule="evenodd" d="M961.152 11.8314H965.675L963.347 22.4009L967.918 17.3179H973L967.662 22.9324L971.017 29.6519H966.19L963.222 23.1362L961.798 29.6519H957.361" fill="#98272A"/>
<path fill-rule="evenodd" clip-rule="evenodd" d="M940.167 23.1361C939.779 24.8981 939.392 26.6189 939.041 28.3413L938.873 29.731H935.124L935.388 27.8477C934.741 28.4609 934.047 28.994 933.317 29.3646V27.2337C933.356 27.1924 933.44 27.1924 933.524 27.1486C934.006 26.9052 934.352 26.7418 934.606 26.4934C935.211 25.8819 935.516 24.9428 935.766 24.1612H935.124C934.57 24.1612 933.917 24.1233 933.317 24.1612V22.1128C934.218 22.0319 935.254 22.0698 936.284 22.0698C936.284 21.0027 935.855 20.1882 934.692 19.9448C934.177 19.8606 933.706 19.8606 933.317 19.8606V17.3178C936.119 16.9936 939.092 17.4425 940.126 19.8606C940.639 21.0878 940.344 21.866 940.167 23.1361ZM933.317 29.3646C932.626 29.6931 931.847 29.9003 931.117 29.9778C929.434 30.1403 927.67 29.4067 926.938 27.9294C926.417 27.1091 926.553 26.2104 926.761 25.2696C926.982 24.3684 927.416 23.8748 928.527 23.1361C930.124 22.4008 931.683 22.1524 933.317 22.1128V24.1612C932.669 24.2024 932.023 24.3684 931.592 24.6564C930.732 25.2696 930.391 26.4167 931.332 27.1091C931.893 27.4771 932.669 27.4426 933.317 27.2337V29.3646ZM933.317 19.8606C932.709 19.8606 932.19 19.9002 931.507 20.0661C930.732 20.2278 930.171 20.4746 929.434 20.7989L929.951 17.9344C930.991 17.691 932.102 17.4425 933.317 17.3178" fill="#98272A"/>
<path fill-rule="evenodd" clip-rule="evenodd" d="M918.061 13.2658H920.43C922.503 13.2658 925.69 13.5522 926.285 15.8465C926.417 16.2154 926.459 16.5809 926.459 16.949V16.9936C926.459 18.3404 925.775 19.5313 924.482 20.3542C923.574 20.7602 922.804 20.9665 921.899 21.2116C924.221 21.5797 925.735 23.0966 925.258 25.5147C924.562 28.8719 921.249 29.4017 918.061 29.6106V26.6627C918.232 26.6627 918.409 26.6189 918.537 26.5759C921.205 26.1674 921.806 23.2179 919.27 22.6872C918.876 22.603 918.495 22.5584 918.061 22.603V19.9794C918.578 19.9794 919.139 19.9381 919.61 19.8606C921.035 19.5313 922.927 18.1399 921.374 16.5809C920.728 15.9307 919.181 16.0099 918.061 16.0907V13.2658ZM913.752 13.2658H918.061V16.0907H917.672L916.765 19.9381C917.155 19.9381 917.634 19.9794 918.061 19.9794V22.603C917.457 22.603 916.81 22.6872 916.207 22.7294L915.303 26.8227C916.075 26.7814 917.115 26.7814 918.061 26.6627V29.6106C917.8 29.6518 917.507 29.6518 917.237 29.6931H910.26" fill="#98272A"/>
<path fill-rule="evenodd" clip-rule="evenodd" d="M24.5611 42.25C11.0279 42.25 0 32.7616 0 21.12C0 9.48839 11.0279 0 24.5611 0C38.0844 0 49.1122 9.48839 49.1122 21.12C49.1122 32.7616 38.0844 42.25 24.5611 42.25Z" fill="#004A8F"/>
<path fill-rule="evenodd" clip-rule="evenodd" d="M40.3184 23.2632L43.0553 23.3839C41.4252 34.764 30.6288 35.5991 25.1853 24.5712L25.8997 23.3839C31.5344 26.9559 38.1249 28.3042 40.3184 23.2632Z" fill="white"/>
<path fill-rule="evenodd" clip-rule="evenodd" d="M21.7337 6.7013L27.2074 4.91028L27.4489 35.8909L21.4922 37.9134L21.7337 6.7013Z" fill="#ED1C24"/>
<path fill-rule="evenodd" clip-rule="evenodd" d="M40.4387 19.0875H42.9341C41.9681 13.8854 39.3319 10.6053 34.2406 10.1525C29.9945 10.233 26.3722 12.6981 23.3938 17.5379C21.4318 20.5263 18.2824 25.2152 14.4589 25.7686C9.8505 26.4327 7.17403 22.3777 9.16629 18.8862C10.3737 16.7531 13.6438 15.8676 15.9279 16.0789C15.938 16.0789 15.9581 16.089 15.9681 16.089C18.061 16.3003 19.9929 16.8336 21.6431 17.8398L21.6733 13.4528C20.6369 12.5673 19.7917 11.6819 18.5742 11.0782C16.924 10.2531 15.3141 9.99148 13.7445 10.2732C6.80173 11.8026 5.52387 17.4775 6.84198 25.0441C9.53858 33.8282 17.9604 34.5023 22.8002 28.8576C26.1206 24.8932 34.3613 11.4806 40.4387 19.0875Z" fill="white"/>
<path fill-rule="evenodd" clip-rule="evenodd" d="M77.5368 26.5936C81.8433 26.5936 85.2443 24.0983 85.2443 19.7918C85.2443 15.4853 81.8433 12.7585 77.5368 12.7585C73.2203 12.7585 69.8193 15.4853 69.8193 19.7918C69.8193 24.0983 73.2203 26.5936 77.5368 26.5936ZM77.5368 23.4241C75.4943 23.4241 74.5887 21.6029 74.5887 19.7918C74.5887 17.7492 75.4943 15.928 77.5368 15.928C79.5794 15.928 80.485 17.7492 80.485 19.7918C80.485 21.6029 79.5794 23.4241 77.5368 23.4241ZM84.7915 16.3908H87.2868V21.6029C87.2868 24.7825 88.4238 26.5936 92.509 26.5936C93.6359 26.5936 94.3201 26.3622 95.2257 26.3622L95.0043 23.4241C94.5515 23.4241 94.0887 23.6455 93.6359 23.6455C92.2775 23.6455 91.8248 22.7399 91.8248 21.1501V16.3908H95.0043V13.2113H91.8248V8.67334L87.5183 10.2631V13.2113H84.7915V16.3908ZM110.872 26.3622H115.41V19.7918H115.641L119.274 26.3622H124.717L119.726 19.1076L124.264 13.2113H119.274L115.641 18.6548H115.41V8.67334L110.872 10.2631V26.3622ZM57.7953 26.3622H62.3333V19.7918L65.9656 26.3622H71.4091L66.6498 19.1076L71.1878 13.2113H66.1971L62.3333 18.6548V8.67334L57.7953 10.0418V26.3622ZM109.292 26.3622C109.061 25.2353 109.061 24.3297 109.061 23.1927V18.202C109.061 14.1168 106.113 12.7585 102.712 12.7585C100.901 12.7585 99.0895 12.9798 97.4896 13.6641V16.8436C98.858 16.1594 100.216 15.928 101.806 15.928C103.396 15.928 104.754 16.3908 104.754 18.202C104.302 17.9706 103.396 17.9706 102.712 17.9706C100.216 17.9706 95.6785 18.4334 95.6785 22.5085C95.6785 25.4667 98.1738 26.5936 100.669 26.5936C102.712 26.5936 103.849 25.9094 104.986 24.3297C104.986 25.0038 105.207 25.688 105.207 26.3622H109.292ZM99.995 22.0658C99.995 20.9288 101.353 20.476 102.943 20.476C103.617 20.476 104.302 20.476 104.754 20.476C104.754 22.0658 103.617 23.6455 102.038 23.6455C100.901 23.6455 99.995 22.9713 99.995 22.0658Z" fill="#ED1C24"/>
<path fill-rule="evenodd" clip-rule="evenodd" d="M126.207 9.35754C126.559 9.35754 126.911 9.4481 127.253 9.62922C127.595 9.81033 127.857 10.0719 128.048 10.414C128.239 10.7561 128.33 11.1184 128.33 11.4907C128.33 11.8529 128.239 12.2051 128.048 12.5472C127.867 12.8893 127.605 13.1509 127.263 13.332C126.931 13.5232 126.569 13.6137 126.207 13.6137C125.834 13.6137 125.482 13.5232 125.14 13.332C124.808 13.1509 124.536 12.8893 124.355 12.5472C124.164 12.2051 124.063 11.8529 124.063 11.4907C124.063 11.1184 124.164 10.7561 124.355 10.414C124.546 10.0719 124.818 9.81033 125.15 9.62922C125.492 9.4481 125.844 9.35754 126.207 9.35754ZM126.207 9.70971C125.905 9.70971 125.613 9.78014 125.331 9.94114C125.039 10.0921 124.818 10.3134 124.667 10.5952C124.506 10.8769 124.426 11.1788 124.426 11.4907C124.426 11.7925 124.506 12.0843 124.657 12.3661C124.818 12.6478 125.039 12.8692 125.321 13.0301C125.603 13.1811 125.895 13.2616 126.207 13.2616C126.509 13.2616 126.8 13.1811 127.092 13.0301C127.374 12.8692 127.585 12.6478 127.746 12.3661C127.907 12.0843 127.978 11.7925 127.978 11.4907C127.978 11.1788 127.897 10.8769 127.746 10.5952C127.585 10.3134 127.364 10.0921 127.072 9.94114C126.79 9.78014 126.498 9.70971 126.207 9.70971ZM125.271 12.6579V10.3738H126.056C126.327 10.3738 126.519 10.3939 126.639 10.4342C126.76 10.4744 126.861 10.5549 126.931 10.6555C127.002 10.7662 127.042 10.8769 127.042 10.9976C127.042 11.1586 126.981 11.3096 126.861 11.4303C126.74 11.551 126.579 11.6215 126.378 11.6416C126.458 11.6718 126.529 11.712 126.579 11.7623C126.67 11.8529 126.78 12.0038 126.911 12.2151L127.193 12.6579H126.75L126.539 12.3057C126.378 12.0139 126.247 11.8428 126.146 11.7724C126.086 11.712 125.985 11.6919 125.854 11.6919H125.633V12.6579H125.271ZM125.633 11.3699H126.086C126.307 11.3699 126.448 11.3397 126.529 11.2794C126.609 11.2089 126.639 11.1284 126.639 11.0278C126.639 10.9574 126.629 10.897 126.589 10.8467C126.549 10.7863 126.498 10.7461 126.428 10.726C126.358 10.6958 126.237 10.6857 126.056 10.6857H125.633V11.3699Z" fill="#004A8F"/>
<path d="M63.5008 38.668H62.2732L59.2043 35.0759C59.0936 34.9552 59.0333 34.8646 58.993 34.8143H58.9729V38.668H58.1076V30.8298H58.9729V34.5125H58.993C59.0433 34.442 59.1138 34.3515 59.2043 34.2509L62.1827 30.8298H63.2593L59.8583 34.593L63.5008 38.668ZM63.9032 35.9413C63.9032 35.0156 64.1648 34.281 64.6679 33.7377C65.171 33.2044 65.8653 32.9428 66.7407 32.9428C67.5658 32.9428 68.2097 33.1944 68.6726 33.7176C69.1455 34.2307 69.3769 34.9451 69.3769 35.8608C69.3769 36.7462 69.1254 37.4506 68.6223 37.9939C68.1091 38.5372 67.445 38.7989 66.6099 38.7989C65.8049 38.7989 65.1509 38.5473 64.6478 38.0241C64.1548 37.5009 63.9032 36.8066 63.9032 35.9413ZM64.7686 35.9111C64.7686 36.5651 64.9396 37.0984 65.2817 37.4908C65.6339 37.8832 66.0967 38.0845 66.6703 38.0845C67.2539 38.0845 67.7066 37.8933 68.0387 37.5109C68.3506 37.1185 68.5217 36.5852 68.5217 35.891C68.5217 35.1766 68.3607 34.6232 68.0387 34.2408C67.7167 33.8484 67.2639 33.6572 66.6703 33.6572C66.0867 33.6572 65.6238 33.8584 65.2817 34.2609C64.9396 34.6634 64.7686 35.2067 64.7686 35.9111ZM73.3715 38.6177C73.1703 38.7284 72.8986 38.7888 72.5565 38.7888C71.6006 38.7888 71.1176 38.2555 71.1176 37.1688V33.7981H70.1416V33.0736H71.1176V31.6951L71.9528 31.4235V33.0736H73.3715V33.7981H71.9528V37.0179C71.9528 37.4002 72.0232 37.6719 72.144 37.8329C72.2748 37.9939 72.4961 38.0744 72.7879 38.0744C73.0193 38.0744 73.2206 38.014 73.3715 37.8832V38.6177ZM74.7198 33.466C75.2732 33.1139 75.897 32.9428 76.6114 32.9428C77.9094 32.9428 78.5534 33.627 78.5534 35.0156V38.668H77.7082V37.7927H77.678C77.2957 38.4668 76.7221 38.7989 75.9574 38.7989C75.404 38.7989 74.9713 38.658 74.6494 38.3561C74.3274 38.0643 74.1765 37.6719 74.1765 37.1889C74.1765 36.1526 74.7902 35.5488 76.0178 35.3677L77.7082 35.1262C77.7082 34.1603 77.3158 33.6673 76.541 33.6673C75.8669 33.6673 75.2531 33.8987 74.7198 34.3615V33.466ZM76.3398 36.0117C75.8568 36.0821 75.5248 36.1928 75.3336 36.3639C75.1424 36.5249 75.0518 36.7865 75.0518 37.1286C75.0518 37.4103 75.1525 37.6417 75.3537 37.8128C75.5549 37.9939 75.8166 38.0744 76.1385 38.0744C76.5913 38.0744 76.9636 37.9134 77.2655 37.6015C77.5573 37.2795 77.7082 36.877 77.7082 36.3941V35.8306L76.3398 36.0117ZM84.8522 38.668H83.6548L81.1292 35.9916H81.1091V38.668H80.2639V30.3871H81.1091V35.6394H81.1292L83.524 33.0736H84.6409L82.0147 35.7803L84.8522 38.668ZM95.5681 38.668V33.3755C95.5681 32.973 95.5983 32.4699 95.6486 31.8561H95.6285C95.5278 32.2284 95.4474 32.48 95.387 32.6007L92.6602 38.668H92.2779L89.541 32.641C89.4706 32.48 89.4001 32.2284 89.3196 31.8561H89.2895C89.3196 32.1379 89.3398 32.641 89.3398 33.3654V38.668H88.4946V30.8298H89.6215L92.0766 36.3538C92.2678 36.7865 92.3885 37.0984 92.4388 37.2795H92.4791C92.5797 37.0078 92.7005 36.6858 92.8514 36.3236L95.3669 30.8298H96.4234V38.668H95.5681ZM98.5162 33.466C99.0696 33.1139 99.6935 32.9428 100.408 32.9428C101.706 32.9428 102.35 33.627 102.35 35.0156V38.668H101.505V37.7927H101.474C101.092 38.4668 100.519 38.7989 99.7539 38.7989C99.2005 38.7989 98.7678 38.658 98.4458 38.3561C98.1238 38.0643 97.9729 37.6719 97.9729 37.1889C97.9729 36.1526 98.5867 35.5488 99.8142 35.3677L101.505 35.1262C101.505 34.1603 101.112 33.6673 100.337 33.6673C99.6633 33.6673 99.0495 33.8987 98.5162 34.3615V33.466ZM100.126 36.0117C99.6532 36.0821 99.3212 36.1928 99.13 36.3639C98.9388 36.5249 98.8483 36.7865 98.8483 37.1286C98.8483 37.4103 98.9489 37.6417 99.1501 37.8128C99.3514 37.9939 99.613 38.0744 99.935 38.0744C100.388 38.0744 100.76 37.9134 101.052 37.6015C101.354 37.2795 101.505 36.877 101.505 36.3941V35.8306L100.126 36.0117ZM108.659 38.668H107.824V35.4382C107.824 34.2509 107.381 33.6572 106.495 33.6572C106.043 33.6572 105.66 33.8283 105.358 34.1804C105.056 34.5225 104.906 34.9653 104.906 35.4985V38.668H104.06V30.3871H104.906V34.0094H104.926C105.358 33.295 105.972 32.9428 106.777 32.9428C108.035 32.9428 108.659 33.6975 108.659 35.2269V38.668ZM110.258 31.0612C110.258 30.9002 110.319 30.7594 110.419 30.6588C110.53 30.5481 110.661 30.4877 110.812 30.4877C110.963 30.4877 111.104 30.5481 111.214 30.6588C111.325 30.7694 111.375 30.9002 111.375 31.0612C111.375 31.2021 111.325 31.3329 111.214 31.4436C111.104 31.5543 110.963 31.6146 110.812 31.6146C110.651 31.6146 110.52 31.5643 110.419 31.4536C110.319 31.343 110.258 31.2122 110.258 31.0612ZM110.379 38.668V33.0736H111.214V38.668H110.379ZM117.664 38.668H116.819V35.4684C116.819 34.2609 116.376 33.6572 115.491 33.6572C115.028 33.6572 114.645 33.8283 114.354 34.1804C114.052 34.5225 113.911 34.9552 113.911 35.4784V38.668H113.066V33.0736H113.911V34.0094H113.931C114.354 33.295 114.967 32.9428 115.772 32.9428C116.386 32.9428 116.849 33.134 117.181 33.5365C117.503 33.9289 117.664 34.5024 117.664 35.247V38.668ZM124.104 38.668H123.258V37.7122H123.238C122.826 38.4366 122.182 38.7989 121.306 38.7989C120.602 38.7989 120.039 38.5473 119.616 38.0442C119.204 37.5411 118.992 36.8569 118.992 36.0016C118.992 35.086 119.224 34.3414 119.697 33.778C120.159 33.2245 120.783 32.9428 121.548 32.9428C122.323 32.9428 122.886 33.2447 123.238 33.8584H123.258V30.3871H124.104V38.668ZM123.258 35.2973C123.258 34.8445 123.108 34.4521 122.796 34.1402C122.484 33.8182 122.101 33.6572 121.649 33.6572C121.085 33.6572 120.652 33.8685 120.33 34.281C120.008 34.6936 119.848 35.247 119.848 35.9614C119.848 36.6054 120.008 37.1185 120.31 37.5009C120.612 37.8933 121.025 38.0845 121.538 38.0845C122.041 38.0845 122.443 37.9033 122.776 37.5411C123.098 37.1789 123.258 36.716 123.258 36.1526V35.2973ZM128.813 33.9389C128.662 33.8182 128.44 33.7578 128.149 33.7578C127.746 33.7578 127.424 33.949 127.173 34.3213C126.911 34.7036 126.79 35.1967 126.79 35.8105V38.668H125.945V33.0736H126.79V34.2307H126.81C126.941 33.8283 127.132 33.5264 127.404 33.305C127.666 33.0837 127.947 32.973 128.269 32.973C128.511 32.973 128.692 33.0032 128.813 33.0535V33.9389ZM129.93 33.466C130.483 33.1139 131.107 32.9428 131.821 32.9428C133.119 32.9428 133.763 33.627 133.763 35.0156V38.668H132.918V37.7927H132.888C132.505 38.4668 131.932 38.7989 131.167 38.7989C130.614 38.7989 130.181 38.658 129.859 38.3561C129.537 38.0643 129.386 37.6719 129.386 37.1889C129.386 36.1526 130 35.5488 131.228 35.3677L132.918 35.1262C132.918 34.1603 132.526 33.6673 131.751 33.6673C131.077 33.6673 130.473 33.8987 129.93 34.3615V33.466ZM131.55 36.0117C131.067 36.0821 130.735 36.1928 130.543 36.3639C130.362 36.5249 130.262 36.7865 130.262 37.1286C130.262 37.4103 130.362 37.6417 130.563 37.8128C130.765 37.9939 131.026 38.0744 131.358 38.0744C131.801 38.0744 132.173 37.9134 132.475 37.6015C132.767 37.2795 132.918 36.877 132.918 36.3941V35.8306L131.55 36.0117ZM138.19 38.668V30.8298H140.384C141.028 30.8298 141.561 30.9908 141.954 31.3228C142.356 31.6448 142.557 32.0775 142.557 32.6208C142.557 33.0636 142.437 33.4459 142.205 33.778C141.964 34.0999 141.632 34.3414 141.209 34.4923V34.5125C141.732 34.5628 142.145 34.754 142.467 35.0961C142.789 35.4382 142.95 35.8809 142.95 36.4242C142.95 37.0883 142.708 37.6317 142.235 38.0442C141.752 38.4567 141.149 38.668 140.424 38.668H138.19ZM139.046 31.6247V34.2106H140.002C140.515 34.2106 140.927 34.0798 141.219 33.8383C141.511 33.5868 141.652 33.2346 141.652 32.7919C141.652 32.0171 141.149 31.6247 140.132 31.6247H139.046ZM139.046 35.0055V37.8732H140.324C140.857 37.8732 141.279 37.7423 141.591 37.4807C141.893 37.2292 142.044 36.867 142.044 36.4142C142.044 35.4684 141.4 35.0055 140.112 35.0055H139.046ZM144.57 33.466C145.123 33.1139 145.747 32.9428 146.451 32.9428C147.759 32.9428 148.403 33.627 148.403 35.0156V38.668H147.558V37.7927H147.528C147.145 38.4668 146.572 38.7989 145.807 38.7989C145.254 38.7989 144.821 38.658 144.499 38.3561C144.177 38.0643 144.016 37.6719 144.016 37.1889C144.016 36.1526 144.64 35.5488 145.868 35.3677L147.558 35.1262C147.558 34.1603 147.166 33.6673 146.391 33.6673C145.717 33.6673 145.103 33.8987 144.57 34.3615V33.466ZM146.18 36.0117C145.707 36.0821 145.375 36.1928 145.183 36.3639C144.992 36.5249 144.902 36.7865 144.902 37.1286C144.902 37.4103 145.002 37.6417 145.204 37.8128C145.405 37.9939 145.666 38.0744 145.988 38.0744C146.441 38.0744 146.813 37.9134 147.105 37.6015C147.407 37.2795 147.558 36.877 147.558 36.3941V35.8306L146.18 36.0117ZM154.712 38.668H153.867V35.4684C153.867 34.2609 153.424 33.6572 152.549 33.6572C152.076 33.6572 151.704 33.8283 151.402 34.1804C151.11 34.5225 150.959 34.9552 150.959 35.4784V38.668H150.114V33.0736H150.959V34.0094H150.979C151.402 33.295 152.015 32.9428 152.82 32.9428C153.434 32.9428 153.907 33.134 154.229 33.5365C154.551 33.9289 154.712 34.5024 154.712 35.247V38.668ZM161.011 38.668H159.803L157.288 35.9916H157.268V38.668H156.423V30.3871H157.268V35.6394H157.288L159.683 33.0736H160.8L158.163 35.7803L161.011 38.668Z" fill="#003974"/>
<g clip-path="url(#clip0_1_287)">
<path d="M289.749 21.7109C288.193 20.4642 286.179 19.6593 284.403 18.9488C281.954 17.9697 279.838 17.125 279.838 15.5582C279.838 14.8739 280.17 14.2453 280.772 13.792C281.407 13.3134 282.294 13.05 283.268 13.05C286.33 13.05 288.773 15.1436 288.794 15.1625L289.391 15.6893L292.105 10.7685L291.795 10.4516C291.677 10.33 288.818 7.47754 283.305 7.47754C280.659 7.47754 278.226 8.29502 276.451 9.77893C274.651 11.2848 273.656 13.3638 273.656 15.6316C273.656 17.8427 274.544 19.631 276.367 21.0971C277.9 22.328 279.809 23.1235 281.657 23.8938C284.176 24.9432 286.355 25.851 286.355 27.466C286.355 28.696 285.493 30.0109 283.078 30.0109C279.614 30.0109 276.834 27.4608 276.806 27.4346L276.285 26.9455L272.911 31.4654L273.248 31.8296C273.286 31.8674 274.158 32.7982 275.796 33.7249C277.298 34.5728 279.769 35.5844 283.001 35.5844C285.829 35.5844 288.239 34.746 289.971 33.1613C291.601 31.669 292.497 29.6079 292.497 27.3569C292.497 25.0408 291.598 23.1938 289.749 21.7109Z" fill="#292075"/>
<path d="M318.271 35.1783H324.593V7.88367H318.271V35.1783Z" fill="#292075"/>
<path d="M305.913 30.0665H301.1V12.9933H305.344C307.246 12.9933 308.337 14.0218 308.337 15.8142C308.337 17.6255 307.355 18.5427 305.419 18.5427H303.957V23.5663H305.913C306.982 23.5663 307.873 23.8885 308.489 24.5014C309.136 25.1436 309.398 25.7796 309.398 26.6957C309.398 28.7757 308.063 30.0665 305.913 30.0665ZM314.307 22.9115C313.682 21.9607 312.824 21.2051 311.804 20.6993C313.451 19.4232 314.382 17.4639 314.382 15.2265C314.382 12.9639 313.491 11.0771 311.804 9.76632C310.215 8.53322 308.008 7.88049 305.419 7.88049H295.132V35.1751H305.534C308.293 35.1751 310.68 34.5014 312.436 33.2242C314.429 31.776 315.481 29.6205 315.481 26.9885C315.481 25.4889 315.076 24.0784 314.307 22.9115Z" fill="#292075"/>
<path d="M254.004 7.39355C245.942 7.39355 239.407 13.7258 239.407 21.5367C239.407 28.8596 245.151 34.8823 252.51 35.6064V25.3325C250.928 24.7491 249.801 23.2683 249.801 21.5367C249.801 19.2962 251.686 17.4733 254.004 17.4733C256.32 17.4733 258.207 19.2962 258.207 21.5367C258.207 23.2683 257.078 24.7491 255.496 25.3325V35.6064C262.856 34.8823 268.6 28.8596 268.6 21.5367C268.6 13.7258 262.065 7.39355 254.004 7.39355Z" fill="#00B5EF"/>
</g>
<defs>
<clipPath id="clip0_1_287">
<rect width="86" height="29" fill="white" transform="translate(239 7)"/>
</clipPath>
</defs>
</svg>
